<?xml version="1.0" encoding="UTF-8"?>
<!DOCTYPE svg PUBLIC "-//W3C//DTD SVG 1.1//EN" "http://www.w3.org/Graphics/SVG/1.1/DTD/svg11.dtd">
<svg xmlns="http://www.w3.org/2000/svg" version="1.1" width="1080px" height="1080px" style="shape-rendering:geometricPrecision; text-rendering:geometricPrecision; image-rendering:optimizeQuality; fill-rule:evenodd; clip-rule:evenodd" xmlns:xlink="http://www.w3.org/1999/xlink">
<g><path style="opacity:1" fill="#fdfdfd" d="M 250.5,446.5 C 250.719,445.325 250.386,444.325 249.5,443.5C 248.505,448.792 248.172,454.125 248.5,459.5C 245.657,554.143 244.157,648.809 244,743.5C 242.459,759.043 233.959,768.21 218.5,771C 199.797,770.565 189.297,761.065 187,742.5C 186.956,647.476 188.623,552.476 192,457.5C 194.516,405.086 198.183,352.753 203,300.5C 204.851,282.82 214.351,271.82 231.5,267.5C 244.466,269.562 253.633,276.562 259,288.5C 268.771,315.917 277.771,343.584 286,371.5C 307.248,449.911 330.915,527.578 357,604.5C 359.333,611.167 361.667,611.167 364,604.5C 397.877,518.733 427.211,431.4 452,342.5C 461.099,305.672 469.432,268.672 477,231.5C 485.418,216.028 497.918,211.195 514.5,217C 522.164,219.998 526.997,225.498 529,233.5C 531.731,245.011 533.397,256.678 534,268.5C 532.896,307.82 532.563,347.153 533,386.5C 538.781,445.095 543.781,503.762 548,562.5C 551.812,628.135 554.479,693.802 556,759.5C 552.891,774.331 543.725,782.665 528.5,784.5C 513.508,782.933 504.008,774.933 500,760.5C 497.832,693.135 494.832,625.802 491,558.5C 488.769,520.398 485.436,482.398 481,444.5C 452.701,526.732 422.034,608.066 389,688.5C 385.29,699.104 378.457,706.937 368.5,712C 356.615,714.481 346.781,710.981 339,701.5C 319.206,660.129 302.539,617.463 289,573.5C 276.257,531.108 263.424,488.775 250.5,446.5 Z"/></g>
<g><path style="opacity:1" fill="#fefefe" d="M 635.5,228.5 C 647.22,229.727 655.387,235.727 660,246.5C 680.155,347.94 700.821,449.274 722,550.5C 731.561,594.516 743.561,637.849 758,680.5C 759.768,684.325 761.768,684.325 764,680.5C 818.863,568.911 857.529,451.911 880,329.5C 882.962,306.249 884.962,282.916 886,259.5C 887.691,249.151 893.191,241.651 902.5,237C 918.797,231.031 931.297,235.531 940,250.5C 940.667,253.167 941.333,255.833 942,258.5C 941.109,300.299 936.109,341.632 927,382.5C 903.756,483.233 870.756,580.566 828,674.5C 812.77,706.649 794.77,736.983 774,765.5C 762.618,776.523 750.452,777.357 737.5,768C 731.689,762.218 727.522,755.385 725,747.5C 698.166,680.661 677.166,611.994 662,541.5C 642.854,447.287 624.354,352.953 606.5,258.5C 608.03,246.289 614.364,237.456 625.5,232C 628.98,230.897 632.313,229.731 635.5,228.5 Z"/></g>
<g><path style="opacity:1" fill="#8d8d8d" d="M 250.5,446.5 C 249.833,450.833 249.167,455.167 248.5,459.5C 248.172,454.125 248.505,448.792 249.5,443.5C 250.386,444.325 250.719,445.325 250.5,446.5 Z"/></g>
</svg>
